PathFileType	4	(X/Y/Z)	Trial59_Left_Knee_markers_cropped.trc
DataRate	CameraRate	NumFrames	NumMarkers	Units	OrigDataRate	OrigDataStartFrame	OrigNumFrames																																																																																													
200	200	6	27	m	200	50	101
Frame#	Time	R_ASIS			L_ASIS			Sacral			L_Thigh_Superior			L_Thigh_Inferior			L_Thigh_Lateral			L_Shank_Superior			L_Shank_Inferior			L_Shank_Lateral			L_Heel			L_Midfoot_Superior			L_Midfoot_Lateral			L_Toe			R_Thigh_Superior			R_Thigh_Inferior			R_Thigh_Lateral			R_Shank_Superior			R_Shank_Lateral			R_Shank_Inferior			R_Heel			R_Midfoot_Superior			R_Midfoot_Lateral			R_Toe
		X1	Y1	Z1	X2	Y2	Z2	X3	Y3	Z3	X4	Y4	Z4	X5	Y5	Z5	X6	Y6	Z6	X7	Y7	Z7	X8	Y8	Z8	X9	Y9	Z9	X10	Y10	Z10	X11	Y11	Z11	X12	Y12	Z12	X13	Y13	Z13	X14	Y14	Z14	X15	Y15	Z15	X16	Y16	Z16	X17	Y17	Z17	X18	Y18	Z18	X19	Y19	Z19	X20	Y20	Z20	X21	Y21	Z21	X22	Y22	Z22	X23	Y23	Z23

51	   0.250	   -0.61820303449989	    0.90872003188410	   -0.40083883509570	   -0.60749868741758	    0.96108896510788	   -0.67043063138369	   -0.81468957033039	    1.04461788532361	   -0.52764651635891	   -0.53848565978011	    0.79102856287548	   -0.62095015939167	   -0.47491470971686	    0.59887297450096	   -0.62110543371097	   -0.56235038547157	    0.68118804124514	   -0.71076218126832	   -0.58730567843304	    0.47798164143888	   -0.65303398251770	   -0.81893348262603	    0.48615389317335	   -0.66395994355259	   -0.71058579209026	    0.55654407191535	   -0.71503275048978	   -0.99912726496128	    0.58581401480630	   -0.64045280050177	   -0.90674782935263	    0.44611406888271	   -0.69751109289380	   -0.98036891282060	    0.51785345985272	   -0.72488246814683	   -0.93045451338512	    0.31337024327287	   -0.73506630103382	   -0.58492586818363	    0.72399545235284	   -0.44297490918979	   -0.59247016065504	    0.57333762485583	   -0.48018783131034	   -0.67193594528184	    0.61784572187946	   -0.39786011554192	   -0.61331440742634	    0.39992645808192	   -0.47820615913100	   -0.63049516576320	    0.20094461957811	   -0.49330229172211	   -0.68234836161895	    0.28792545466298	   -0.42545509567155	   -0.75717754570950	    0.03662135072145	   -0.53855911858446	   -0.58635822875142	    0.08999832684924	   -0.49414743092441	   -0.67645561216205	    0.02848824321704	   -0.46149701136779	   -0.46817247510218	    0.03670051976921	   -0.46299088458483
52	   0.255	   -0.61837607448746	    0.90913987919539	   -0.40124378059102	   -0.60811093353960	    0.96071788218569	   -0.67075430684939	   -0.81523152490680	    1.04394299591461	   -0.52841501451832	   -0.53629420350479	    0.79329884578083	   -0.62004766025759	   -0.46970340177997	    0.60213204474263	   -0.61928719051252	   -0.55803160684234	    0.68274879305421	   -0.70970335209508	   -0.57989784687889	    0.47932217189401	   -0.65131872526506	   -0.81137589808315	    0.48333357685915	   -0.66342629388982	   -0.70410775299649	    0.55528616658750	   -0.71434236383921	   -0.99322498873213	    0.58005030860202	   -0.64127108005186	   -0.89842922083394	    0.44158353774441	   -0.69688287762754	   -0.97297749175223	    0.51191829545772	   -0.72514018778049	   -0.91973189224060	    0.30833295434424	   -0.73370651908905	   -0.58465374438096	    0.72398941104131	   -0.44312760368606	   -0.59214137175055	    0.57334470444353	   -0.48032867496504	   -0.67165844066246	    0.61787025247336	   -0.39808865096915	   -0.61300014834591	    0.39982260617384	   -0.47842623796036	   -0.63026278408431	    0.20083097703795	   -0.49354660618237	   -0.68210754180110	    0.28785785753304	   -0.42592142695865	   -0.75716560893835	    0.03657980585485	   -0.53861909355334	   -0.58639221300959	    0.09002921172304	   -0.49420470208957	   -0.67647609367157	    0.02851280322654	   -0.46154134994830	   -0.46819685060497	    0.03676665653486	   -0.46295189757486
53	   0.260	   -0.61865189323164	    0.90963010794659	   -0.40153544583357	   -0.60858589203568	    0.96023538464279	   -0.67089847931571	   -0.81571711526967	    1.04321681599379	   -0.52933104410207	   -0.53440027464646	    0.79496045317122	   -0.61887904194725	   -0.46554971799447	    0.60462443337845	   -0.61687980815053	   -0.55430512871639	    0.68375817619166	   -0.70821270756384	   -0.57377382586304	    0.48016599360033	   -0.64925051162980	   -0.80507131927942	    0.48037044156381	   -0.66312356676167	   -0.69862600205126	    0.55373840252753	   -0.71353814654877	   -0.98846521845713	    0.57441351576092	   -0.64269035155860	   -0.89134894439468	    0.43707668146879	   -0.69672317755653	   -0.96664016556444	    0.50615372431420	   -0.72601689713293	   -0.91034655047136	    0.30336721400400	   -0.73299685744460	   -0.58438076063014	    0.72397121043345	   -0.44307957053822	   -0.59181387513431	    0.57333529689901	   -0.48033452801626	   -0.67148796101253	    0.61787250625618	   -0.39825074644038	   -0.61268868379285	    0.39973062742044	   -0.47856042948944	   -0.63007855016845	    0.20072476668634	   -0.49374206390890	   -0.68195419504834	    0.28779067104550	   -0.42633308550632	   -0.75716013148118	    0.03653290852334	   -0.53867751505695	   -0.58643991192625	    0.09006627635967	   -0.49425415767053	   -0.67650578152707	    0.02852908435528	   -0.46157894854128	   -0.46823490452864	    0.03687433755887	   -0.46291436969426
54	   0.265	   -0.61906392326118	    0.91016235597091	   -0.40171711843131	   -0.60889600943647	    0.95967625207846	   -0.67089508716473	   -0.81617225326110	    1.04247511323865	   -0.53036922047113	   -0.53284210205853	    0.79605359008596	   -0.61751343424892	   -0.46240036891371	    0.60637563618389	   -0.61405813164275	   -0.55119220177208	    0.68426481707546	   -0.70641686710313	   -0.56895663642330	    0.48059866938024	   -0.64695170794465	   -0.80005958727543	    0.47762500462129	   -0.66295755167583	   -0.69414291618587	    0.55214741367421	   -0.71261930758929	   -0.98475859046575	    0.56947345776468	   -0.64445675955731	   -0.88562555808714	    0.43305960722796	   -0.69687978068612	   -0.96141708004485	    0.50111817577901	   -0.72728212335691	   -0.90261125484409	    0.29897049443345	   -0.73279296052035	   -0.58416698952588	    0.72394008290294	   -0.44286463597929	   -0.59152379382333	    0.57331483090834	   -0.48023885516546	   -0.67145673209972	    0.61784544889659	   -0.39836042183574	   -0.61241508064350	    0.39965591733291	   -0.47863099164243	   -0.62995186879047	    0.20063530804073	   -0.49389849388674	   -0.68189863111288	    0.28772730572813	   -0.42668968949328	   -0.75716139398482	    0.03648228636839	   -0.53873307839557	   -0.58650084615636	    0.09010838538295	   -0.49429663252236	   -0.67654333618417	    0.02853730194490	   -0.46160949574987	   -0.46828555784855	    0.03701919350934	   -0.46287897458066
55	   0.270	   -0.61963282532425	    0.91070502278229	   -0.40179850553644	   -0.60904759374766	    0.95907598283050	   -0.67077891395697	   -0.81662500550261	    1.04175189359949	   -0.53149235425387	   -0.53164522920642	    0.79665316943366	   -0.61603765874204	   -0.46016352185246	    0.60746264329424	   -0.61102560858105	   -0.54869793277861	    0.68434662692352	   -0.70445853418942	   -0.56538925756163	    0.48071162334032	   -0.64455690081250	   -0.79629910745176	    0.47531251423674	   -0.66284585500924	   -0.69063016003433	    0.55068118894161	   -0.71161194041590	   -0.98200267621791	    0.56554418200370	   -0.64633473791845	   -0.88127096118864	    0.42979137531068	   -0.69720255368365	   -0.95731167699882	    0.49711128610047	   -0.72871298419859	   -0.89664834816039	    0.29541376356498	   -0.73292516281129	   -0.58406200051943	    0.72389781647026	   -0.44252085475412	   -0.59130242759534	    0.57328806808426	   -0.48007654113757	   -0.67158874071737	    0.61778216429658	   -0.39843278768088	   -0.61221706614112	    0.39960123489705	   -0.47866153444879	   -0.62988859966828	    0.20056962014472	   -0.49402623006361	   -0.68194025801958	    0.28767047221176	   -0.42699370090983	   -0.75716911086277	    0.03642976461988	   -0.53878454349593	   -0.58657320394405	    0.09015404201779	   -0.49433314195903	   -0.67658703984716	    0.02853812201021	   -0.46163282432926	   -0.46834652627715	    0.03719342148917	   -0.46284665913406
56	   0.275	   -0.62036280311174	    0.91122831588822	   -0.40179330977305	   -0.60909394760956	    0.95846111716234	   -0.67057934518012	   -0.81710296403802	    1.04107393973472	   -0.53265418599462	   -0.53082142799220	    0.79685200400101	   -0.61454515398378	   -0.45872652087953	    0.60799454704881	   -0.60798753050076	   -0.54681445416847	    0.68409489073162	   -0.70247788811154	   -0.56295337339442	    0.48058770692256	   -0.64219295771859	   -0.79368651572999	    0.47350218635370	   -0.66272286789841	   -0.68803521625941	    0.54941920017196	   -0.71055664815755	   -0.98009348827912	    0.56268883175833	   -0.64812636659914	   -0.87820495348613	    0.42732932373294	   -0.69756164129074	   -0.95427902574968	    0.49418199583262	   -0.73011552711498	   -0.89240768028370	    0.29274910890497	   -0.73322080696503	   -0.58409894435819	    0.72384808816786	   -0.44208857531985	   -0.59117142224052	    0.57325912702786	   -0.47988298401898	   -0.67189180404995	    0.61767738385555	   -0.39848131212822	   -0.61212632424086	    0.39956710066616	   -0.47867397419206	   -0.62989015226797	    0.20053156043842	   -0.49413495259201	   -0.68206955048890	    0.28762170225600	   -0.42724860965219	   -0.75718266715589	    0.03637712491121	   -0.53883050621296	   -0.58665410670275	    0.09020136404816	   -0.49436483413462	   -0.67663493577743	    0.02853253787071	   -0.46164872405736	   -0.46841458335492	    0.03738686952051	   -0.46281865756806
